<svg width="1068" height="464" viewBox="0 0 1068 464" fill="none" xmlns="http://www.w3.org/2000/svg">
<path d="M354.727 271.492L381.572 347.289L408.273 271.492H436.553V376H414.948V347.433L417.101 298.122L388.893 376H374.107L345.97 298.193L348.123 347.433V376H326.59V271.492H354.727Z" fill="url(#paint0_linear_413_8)"/>
<path d="M518.236 330.708H476.892V358.702H525.413V376H455.359V271.492H525.27V288.934H476.892V313.841H518.236V330.708Z" fill="url(#paint1_linear_413_8)"/>
<path d="M566.183 271.492L593.028 347.289L619.729 271.492H648.009V376H626.404V347.433L628.557 298.122L600.349 376H585.563L557.426 298.193L559.579 347.433V376H538.046V271.492H566.183Z" fill="url(#paint2_linear_413_8)"/>
<path d="M729.692 330.708H688.348V358.702H736.869V376H666.815V271.492H736.726V288.934H688.348V313.841H729.692V330.708Z" fill="url(#paint3_linear_413_8)"/>
<path d="M772.327 358.702H825.012V376H745.411V363.367L797.091 288.934H745.483V271.492H823.864V283.838L772.327 358.702Z" fill="url(#paint4_linear_413_8)"/>
<path d="M904.613 376H839.152V369.396L874.969 328.771C880.903 321.928 885.018 316.281 887.315 311.831C889.612 307.381 890.76 303.05 890.76 298.839C890.76 292.236 888.822 287.02 884.946 283.192C881.07 279.316 875.735 277.378 868.94 277.378C861.906 277.378 856.211 279.627 851.857 284.125C847.55 288.623 845.397 294.461 845.397 301.639H836.855C836.855 295.753 838.171 290.394 840.803 285.561C843.483 280.728 847.263 276.947 852.144 274.22C857.073 271.444 862.671 270.057 868.94 270.057C878.51 270.057 885.975 272.569 891.334 277.593C896.742 282.618 899.445 289.46 899.445 298.122C899.445 303.002 897.914 308.338 894.851 314.128C891.837 319.918 886.501 327.144 878.845 335.805L849.703 368.75H904.613V376Z" fill="url(#paint5_linear_413_8)"/>
<path d="M960.671 376H952.058V281.828L923.634 292.379V284.34L959.236 271.133H960.671V376Z" fill="url(#paint6_linear_413_8)"/>
<path d="M1067.69 376H1002.23V369.396L1038.05 328.771C1043.98 321.928 1048.1 316.281 1050.39 311.831C1052.69 307.381 1053.84 303.05 1053.84 298.839C1053.84 292.236 1051.9 287.02 1048.02 283.192C1044.15 279.316 1038.81 277.378 1032.02 277.378C1024.98 277.378 1019.29 279.627 1014.93 284.125C1010.63 288.623 1008.47 294.461 1008.47 301.639H999.933C999.933 295.753 1001.25 290.394 1003.88 285.561C1006.56 280.728 1010.34 276.947 1015.22 274.22C1020.15 271.444 1025.75 270.057 1032.02 270.057C1041.59 270.057 1049.05 272.569 1054.41 277.593C1059.82 282.618 1062.52 289.46 1062.52 298.122C1062.52 303.002 1060.99 308.338 1057.93 314.128C1054.91 319.918 1049.58 327.144 1041.92 335.805L1012.78 368.75H1067.69V376Z" fill="url(#paint7_linear_413_8)"/>
<path d="M132.415 0.142882C103.615 2.72989 92.6149 4.19583 72.4149 8.24878C38.4149 15.0612 12.1149 26.0991 5.81491 36.3608L3.11491 40.5863L2.51491 73.3549C2.11491 91.3776 1.61491 111.384 1.41491 117.765C1.21491 124.146 0.714911 142.169 0.314911 157.863C-0.28509 183.561 -0.0850894 186.665 1.41491 190.028C3.61491 194.685 10.0149 199.514 18.9149 203.222C22.7149 204.774 25.9149 206.413 25.9149 206.844C25.9149 207.189 24.8149 208.827 23.5149 210.293C17.3149 217.364 13.4149 228.488 8.81491 250.995C6.11491 264.534 5.61491 269.018 5.31491 286.523C5.01491 298.855 5.21491 307.133 5.81491 308.082C6.41491 308.944 7.21491 311.359 7.71491 313.514C11.1149 327.398 20.7149 354.648 25.8149 364.651C26.9149 366.979 27.9149 369.135 27.9149 369.566C27.9149 372.239 46.9149 402.679 49.9149 404.922C50.3149 405.18 51.2149 406.215 52.0149 407.25C55.2149 411.217 66.7149 421.565 71.4149 424.669C74.2149 426.48 82.3149 430.619 89.4149 433.81C96.6149 437 105.315 441.053 108.915 442.864C115.915 446.4 124.815 449.159 131.915 450.194C139.715 451.229 145.815 453.04 154.815 457.006C173.715 465.285 182.215 465.543 199.615 458.559C205.515 456.144 214.415 453.126 219.315 451.919C226.215 450.194 229.215 448.9 232.815 446.227C238.715 441.657 244.215 438.897 252.415 436.397C264.415 432.602 273.715 425.273 280.315 414.407C286.015 404.922 287.115 398.799 286.915 375.171C286.915 356.976 286.615 353.871 284.815 348.87C280.615 337.142 281.115 330.675 287.915 309.634C293.715 291.956 293.015 272.64 286.415 264.361C285.115 262.723 282.715 259.705 281.115 257.721C278.515 254.531 278.215 253.237 277.615 244.786C277.315 239.526 276.115 232.886 275.015 229.523C273.815 226.16 272.515 219.865 272.015 215.381C270.815 205.809 270.315 205.205 258.415 198.307C254.015 195.806 249.115 192.529 247.415 191.063C244.615 188.476 245.115 188.562 256.415 193.478C275.615 201.756 281.215 202.705 275.615 196.755C267.315 187.873 265.115 186.579 252.215 182.871L243.015 180.284L249.415 175.972C257.915 170.281 263.515 163.814 264.915 158.036C266.115 152.689 267.815 157.691 238.715 79.8224C236.015 72.4925 232.515 62.9207 230.915 58.6952C221.715 33.7738 218.815 26.0991 218.415 25.4092C217.315 23.9432 220.115 23.7708 226.915 24.9781C247.215 28.6861 261.815 42.9146 264.415 61.7134C264.915 65.5939 264.615 67.1461 263.015 69.9055C259.315 75.9419 260.415 85.9449 265.515 92.4124L268.115 95.6893L266.015 103.881C263.215 114.402 262.215 130.183 263.915 137.857C264.615 141.134 266.515 145.532 268.315 148.119C271.315 152.517 271.715 152.776 277.915 154.155C286.615 156.053 286.015 156.139 291.815 152.689C296.515 149.93 297.415 149.671 304.415 149.671C311.015 149.671 312.015 149.499 313.315 147.688C315.215 145.187 317.615 137.512 317.215 135.701C316.915 134.925 313.915 132.511 310.515 130.355C298.915 123.198 290.215 113.195 285.815 101.898C283.815 96.8103 283.715 95.6893 284.815 93.2747C289.315 83.7891 287.915 74.3034 281.015 67.5772C278.715 65.3352 277.815 63.1794 276.915 58.609C274.415 45.4153 269.515 36.8782 259.615 28.2549C249.415 19.2866 236.215 14.0264 221.215 12.9916C214.115 12.4742 212.315 12.0431 210.315 10.2322C206.815 7.21402 198.515 4.19583 188.315 2.12625C181.115 0.74652 175.215 0.315337 157.915 0.0566397C146.115 -0.029603 134.615 -0.0295725 132.415 0.142882ZM177.415 12.6467C191.515 14.1989 190.815 15.1474 175.915 14.7163C135.115 13.5952 80.0149 22.3911 49.4149 34.9811C35.8149 40.5 30.5149 43.9493 31.2149 46.7088C31.6149 48.6922 31.4149 48.8647 28.5149 48.261C24.3149 47.5711 17.3149 44.8979 16.5149 43.6906C14.5149 41.0174 23.9149 35.0673 39.0149 29.5484C76.3149 15.8373 138.115 8.33505 177.415 12.6467ZM24.3149 59.3851C26.9149 59.9025 29.3149 60.7648 29.5149 61.196C29.8149 62.0583 31.8149 117.506 33.4149 166.918C33.7149 176.145 34.2149 186.579 34.4149 190.028L34.9149 196.237L32.2149 195.72C27.3149 194.857 16.6149 189.856 14.8149 187.614C13.1149 185.544 13.0149 183.475 13.9149 149.24C14.4149 129.32 15.1149 100.518 15.5149 85.1688C16.1149 60.075 16.3149 57.4017 17.8149 57.8329C18.7149 58.1778 21.6149 58.7815 24.3149 59.3851ZM232.715 189.339C237.815 192.012 236.915 193.391 229.515 193.995C224.015 194.513 222.015 195.289 213.815 199.945C194.915 210.724 187.415 224.004 192.415 238.147C195.015 245.304 200.015 248.926 210.815 251.34C214.715 252.116 218.115 253.065 218.415 253.324C218.715 253.582 217.515 255.479 215.715 257.549C213.215 260.308 210.215 262.292 204.315 264.879C192.715 269.88 184.215 271.26 164.115 271.346C154.915 271.346 146.515 271.691 145.415 272.036C141.315 273.416 150.415 274.709 165.915 274.882C177.615 275.054 183.915 274.709 191.615 273.416C197.315 272.554 202.215 272.036 202.515 272.381C202.815 272.64 200.715 276.52 197.815 280.918C192.515 288.765 192.415 288.938 192.515 295.837C192.515 300.752 193.315 304.977 195.315 310.755C198.015 318.602 198.115 319.206 197.715 335.762C197.215 352.492 197.215 352.837 193.615 362.236C188.815 374.826 187.115 381.466 186.415 390.262C186.115 394.315 185.615 398.885 185.315 400.437L184.815 403.283L180.815 400.437C156.815 383.363 145.115 378.189 130.415 378.189C124.415 378.189 124.715 379.483 131.215 381.121C143.215 384.312 146.815 385.519 154.015 388.623C168.415 394.746 182.015 405.87 188.215 416.391C189.715 418.978 194.315 424.152 198.415 428.032C206.715 435.707 211.815 438.035 222.415 439.07C228.615 439.76 229.415 440.967 225.215 443.554C220.715 446.227 216.115 447.176 207.915 447.176H200.215L198.115 451.487C196.915 453.816 195.615 455.799 195.215 455.799C194.715 455.799 190.715 456.23 186.215 456.661C174.415 457.955 168.015 456.834 154.315 451.056C148.015 448.383 137.015 444.503 129.815 442.347C113.115 437.345 87.1149 426.997 78.2149 421.909C69.9149 417.167 63.9149 411.82 56.5149 402.938C41.1149 384.312 30.0149 362.236 19.5149 329.123C10.8149 301.959 10.5149 300.579 11.2149 285.144C12.5149 254.358 21.7149 220.727 31.7149 210.121C33.4149 208.31 34.1149 208.137 38.7149 208.741C41.6149 209.086 43.9149 209.603 43.8149 209.862C43.8149 210.207 40.8149 212.708 37.3149 215.381C33.8149 218.14 31.1149 220.382 31.2149 220.382C31.4149 220.382 36.7149 219.779 42.9149 219.089C52.3149 218.054 55.0149 217.364 58.2149 215.381C60.3149 214.087 62.6149 212.708 63.3149 212.277C64.0149 211.845 67.6149 211.845 71.2149 212.104L77.9149 212.794L74.8149 216.588C73.1149 218.744 71.5149 221.848 71.3149 223.659C69.2149 236.939 68.8149 238.319 65.2149 241.941C63.3149 243.838 61.8149 245.563 62.0149 245.735C62.2149 245.821 64.3149 246.425 66.5149 246.942C68.9149 247.546 73.7149 250.133 77.8149 253.151C89.9149 261.861 97.0149 264.275 113.415 264.965C126.615 265.569 128.715 264.879 139.015 256.687C146.215 250.995 148.515 247.46 150.015 239.095C151.715 230.041 148.215 215.467 143.215 210.724C142.315 209.862 141.815 209 142.015 208.913C142.215 208.741 147.115 207.879 152.915 207.103C173.715 204.084 199.215 197.703 220.915 190.287C225.015 188.821 228.615 187.7 228.915 187.614C229.215 187.614 230.915 188.39 232.715 189.339ZM245.315 200.118C255.615 202.446 260.515 204.688 263.615 208.569C266.115 211.759 266.415 212.88 266.315 218.658C266.315 223.918 265.715 226.16 263.215 230.73C259.815 237.112 255.615 241.768 252.315 242.803C247.815 244.355 224.315 246.425 217.615 245.994C205.715 245.131 200.815 241.855 198.715 233.317C196.915 225.643 199.215 220.382 208.015 212.363C221.115 200.204 231.115 196.927 245.315 200.118ZM134.715 212.19C140.115 216.071 142.215 221.245 142.715 231.765C143.115 240.475 143.015 241.337 140.515 245.735C133.615 257.808 119.115 261.861 99.8149 257.118C94.6149 255.824 88.5149 253.841 86.2149 252.634C73.9149 246.511 71.7149 231.679 81.1149 219.52C83.2149 216.761 85.5149 214.174 86.2149 213.656C86.8149 213.225 93.0149 212.535 99.9149 212.19C106.815 211.932 115.815 211.328 119.915 210.983C131.515 209.862 131.615 209.862 134.715 212.19ZM252.015 250.564C263.515 252.461 275.915 260.05 281.215 268.501C287.115 277.814 287.015 292.646 280.915 310.927C276.615 323.69 274.615 333.693 275.415 337.918C275.815 339.902 277.215 345.334 278.615 349.991C281.015 358.183 281.115 359.304 280.715 379.31C280.315 398.109 280.015 400.696 278.115 405.266C270.015 424.324 255.015 433.637 232.415 433.637C221.315 433.637 215.615 432.344 207.715 428.118C198.015 422.772 193.915 415.011 193.115 400.179C192.415 386.813 194.015 378.275 200.115 363.098L205.215 350.25L205.715 336.366C206.015 327.225 205.815 320.93 205.015 317.826C200.915 301.873 200.915 302.304 202.315 295.492C205.215 281.349 212.215 269.622 224.215 258.67C230.615 252.806 232.815 251.34 236.215 250.737C242.015 249.616 245.715 249.529 252.015 250.564Z" fill="url(#paint8_linear_413_8)"/>
<path d="M228.715 219.865C225.915 221.676 224.915 224.867 226.415 227.799C229.215 233.663 238.715 232.541 240.515 226.246C241.015 224.349 240.515 223.401 238.115 221.245C234.915 218.485 231.515 217.968 228.715 219.865Z" fill="url(#paint9_linear_413_8)"/>
<path d="M107.515 227.712C102.015 232.11 105.815 239.354 113.715 239.354C121.515 239.354 125.215 231.765 119.515 227.54C115.915 224.867 111.015 224.953 107.515 227.712Z" fill="url(#paint10_linear_413_8)"/>
<path d="M238.014 262.723C230.214 264.793 218.214 280.056 215.914 291.007C215.314 293.508 214.914 304.374 214.914 315.153C214.914 335.159 214.114 342.316 209.814 360.511C208.114 368.014 207.614 373.101 207.614 385.088C207.514 398.626 207.714 400.61 209.614 404.232C212.514 409.664 218.014 414.752 223.514 416.908C229.214 419.236 239.014 420.099 244.714 418.805C256.114 416.132 267.014 400.179 269.814 381.983C271.014 374.567 270.514 370.428 266.914 361.029C262.214 348.266 263.314 335.418 270.514 320.672C277.814 305.495 278.314 297.044 272.714 281.867C269.214 272.295 265.214 267.293 258.614 264.448C253.214 262.119 243.314 261.343 238.014 262.723ZM253.014 268.759C254.914 269.363 257.914 270.743 259.714 271.864C262.414 273.588 262.914 274.537 262.914 277.383C262.914 281.263 263.214 281.177 254.214 279.538C250.514 278.849 244.414 278.072 240.714 277.728L234.114 277.124L235.114 274.364C237.314 268.414 244.214 266.258 253.014 268.759ZM268.914 301.183C268.814 307.133 267.314 312.048 263.014 320.413C255.614 334.555 254.614 347.318 259.914 362.15C262.314 368.962 262.914 372.325 262.714 376.465L262.414 381.897L257.214 375.861C247.414 364.478 241.414 361.287 227.214 359.908L217.714 358.959L218.214 355.855C218.514 354.13 219.514 348.87 220.314 344.127C221.414 338.263 221.914 329.467 221.914 316.877C221.914 306.616 222.214 297.992 222.614 297.734C222.914 297.389 233.514 297.13 246.114 297.13H268.914V301.183ZM231.014 363.874C241.214 365.944 249.314 371.291 253.914 378.965L255.814 382.328L252.714 382.846C248.714 383.536 217.614 383.536 215.514 382.846C213.614 382.242 213.414 378.793 214.914 372.067C216.614 364.047 217.614 362.667 221.814 362.667C223.814 362.667 227.914 363.185 231.014 363.874ZM223.214 388.537C223.514 389.486 223.514 392.504 223.214 395.35L222.614 400.437L227.014 401.041C231.314 401.558 235.714 402.507 247.514 405.439C252.214 406.56 252.814 406.991 251.814 408.112C248.714 411.217 242.814 412.855 235.514 412.51C227.514 412.165 223.514 410.785 220.614 407.336C218.814 405.266 218.714 404.663 219.814 402.938C220.914 401.213 220.614 400.351 216.914 395.608C214.614 392.676 212.914 389.658 213.214 388.968C213.514 388.365 215.314 387.675 217.114 387.416C218.914 387.244 220.914 386.985 221.514 386.985C222.214 386.899 222.914 387.589 223.214 388.537Z" fill="url(#paint11_linear_413_8)"/>
<defs>
<linearGradient id="paint0_linear_413_8" x1="242.049" y1="419.407" x2="242.049" y2="262.039" gradientUnits="userSpaceOnUse">
<stop stop-color="#D947BD"/>
<stop offset="1" stop-color="#9451E3"/>
</linearGradient>
<linearGradient id="paint1_linear_413_8" x1="242.049" y1="419.407" x2="242.049" y2="262.039" gradientUnits="userSpaceOnUse">
<stop stop-color="#D947BD"/>
<stop offset="1" stop-color="#9451E3"/>
</linearGradient>
<linearGradient id="paint2_linear_413_8" x1="242.049" y1="419.407" x2="242.049" y2="262.039" gradientUnits="userSpaceOnUse">
<stop stop-color="#D947BD"/>
<stop offset="1" stop-color="#9451E3"/>
</linearGradient>
<linearGradient id="paint3_linear_413_8" x1="242.049" y1="419.407" x2="242.049" y2="262.039" gradientUnits="userSpaceOnUse">
<stop stop-color="#D947BD"/>
<stop offset="1" stop-color="#9451E3"/>
</linearGradient>
<linearGradient id="paint4_linear_413_8" x1="242.049" y1="419.407" x2="242.049" y2="262.039" gradientUnits="userSpaceOnUse">
<stop stop-color="#D947BD"/>
<stop offset="1" stop-color="#9451E3"/>
</linearGradient>
<linearGradient id="paint5_linear_413_8" x1="242.049" y1="419.407" x2="242.049" y2="262.039" gradientUnits="userSpaceOnUse">
<stop stop-color="#D947BD"/>
<stop offset="1" stop-color="#9451E3"/>
</linearGradient>
<linearGradient id="paint6_linear_413_8" x1="242.049" y1="419.407" x2="242.049" y2="262.039" gradientUnits="userSpaceOnUse">
<stop stop-color="#D947BD"/>
<stop offset="1" stop-color="#9451E3"/>
</linearGradient>
<linearGradient id="paint7_linear_413_8" x1="242.049" y1="419.407" x2="242.049" y2="262.039" gradientUnits="userSpaceOnUse">
<stop stop-color="#D947BD"/>
<stop offset="1" stop-color="#9451E3"/>
</linearGradient>
<linearGradient id="paint8_linear_413_8" x1="242.049" y1="419.407" x2="242.049" y2="262.039" gradientUnits="userSpaceOnUse">
<stop stop-color="#D947BD"/>
<stop offset="1" stop-color="#9451E3"/>
</linearGradient>
<linearGradient id="paint9_linear_413_8" x1="242.049" y1="419.407" x2="242.049" y2="262.039" gradientUnits="userSpaceOnUse">
<stop stop-color="#D947BD"/>
<stop offset="1" stop-color="#9451E3"/>
</linearGradient>
<linearGradient id="paint10_linear_413_8" x1="242.049" y1="419.407" x2="242.049" y2="262.039" gradientUnits="userSpaceOnUse">
<stop stop-color="#D947BD"/>
<stop offset="1" stop-color="#9451E3"/>
</linearGradient>
<linearGradient id="paint11_linear_413_8" x1="242.049" y1="419.407" x2="242.049" y2="262.039" gradientUnits="userSpaceOnUse">
<stop stop-color="#D947BD"/>
<stop offset="1" stop-color="#9451E3"/>
</linearGradient>
</defs>
</svg>

